<svg width="1058" height="560" viewBox="0 0 1058 560" fill="none" xmlns="http://www.w3.org/2000/svg">
<path d="M826.41 292.475L828.355 289.565L822.535 285.675L820.59 288.585L826.41 292.475ZM410 290.53L412.584 288.169L410 290.53ZM-100.906 626.165C-96.5268 617.88 -91.7512 608.639 -86.6005 598.635L-92.8242 595.431C-97.9745 605.435 -102.735 614.646 -107.094 622.894L-100.906 626.165ZM-57.9584 543.392C-48.7839 525.995 -38.8769 507.619 -28.2856 488.802L-34.3856 485.369C-45.0167 504.256 -54.955 522.691 -64.15 540.126L-57.9584 543.392ZM3.22075 435.243C14.0287 417.735 25.3658 400.29 37.1943 383.321L31.4518 379.318C19.5372 396.41 8.12883 413.966 -2.73576 431.566L3.22075 435.243ZM74.4737 333.819C87.894 317.454 101.802 302.089 116.152 288.194L111.282 283.165C96.7072 297.278 82.6193 312.847 69.061 329.381L74.4737 333.819ZM163.727 249.193C181.521 237.287 199.805 228.107 218.511 222.358L216.455 215.667C196.977 221.653 178.079 231.168 159.835 243.375L163.727 249.193ZM278.55 216.381C297.285 218.485 316.461 224.424 336.032 234.919L339.34 228.751C319.044 217.866 299.016 211.635 279.331 209.425L278.55 216.381ZM385.706 271.028C392.9 277.65 400.138 284.927 407.416 292.891L412.584 288.169C405.179 280.066 397.799 272.645 390.447 265.878L385.706 271.028ZM407.416 292.891C414.72 300.883 421.95 308.422 429.106 315.526L434.038 310.558C426.966 303.537 419.814 296.081 412.584 288.169L407.416 292.891ZM476.204 357.044C494.347 371.006 511.952 382.189 528.993 390.935L532.189 384.707C515.562 376.174 498.315 365.226 480.473 351.496L476.204 357.044ZM588.106 412.538C610.393 417.337 631.426 418.017 651.116 415.608L650.266 408.66C631.345 410.974 611.098 410.328 589.58 405.694L588.106 412.538ZM711.592 397.591C731.232 388.14 748.801 376.005 764.183 362.965L759.656 357.626C744.638 370.358 727.563 382.137 708.557 391.283L711.592 397.591ZM807.867 317.748C815.211 308.595 821.406 299.963 826.41 292.475L820.59 288.585C815.686 295.923 809.61 304.389 802.407 313.368L807.867 317.748Z" fill="white"/>
<path d="M844.049 161.998L871.147 164.202C872.845 157.17 874.819 150.201 877.069 143.295C879.319 136.39 881.911 129.63 884.844 123.016L868.532 125.071C867.484 125.151 866.53 125.457 865.67 125.988C864.809 126.519 864.106 127.259 863.558 128.208L844.049 161.998ZM878.29 165.717L909.536 183.962C917.55 175.98 924.44 168.605 930.206 161.836C935.972 155.068 941.247 147.541 946.031 139.254C952.322 128.358 956.877 117.264 959.696 105.972C962.515 94.6796 962.349 79.9244 959.199 61.7063C941.684 68.1305 928.793 75.3076 920.525 83.2376C912.256 91.1678 904.977 100.581 898.686 111.477C893.902 119.763 889.988 128.137 886.945 136.599C883.902 145.06 881.017 154.766 878.29 165.717ZM921.936 126.521C918.766 124.744 916.737 122.195 915.847 118.874C914.957 115.553 915.44 112.331 917.297 109.207C919.091 106.099 921.628 104.106 924.908 103.227C928.188 102.348 931.413 102.798 934.583 104.575C937.691 106.369 939.689 108.926 940.579 112.247C941.469 115.568 941.017 118.782 939.223 121.889C937.383 125.076 934.823 127.109 931.543 127.988C928.262 128.867 925.06 128.378 921.936 126.521ZM929.941 211.77L949.47 177.944C950.018 176.995 950.307 176.015 950.337 175.005C950.367 173.994 950.155 173.015 949.7 172.067L943.324 156.913C939.045 162.698 934.492 168.342 929.664 173.847C924.837 179.351 919.802 184.597 914.562 189.584L929.941 211.77ZM963.562 54.3415C969.738 67.2373 971.47 81.6979 968.759 97.7233C966.049 113.749 961.455 127.372 954.977 138.592C954.36 139.659 953.317 141.519 951.845 144.173C950.374 146.826 949.33 148.686 948.714 149.754L956.325 170.112C957.064 172.073 957.361 174.032 957.217 175.988C957.073 177.945 956.487 179.86 955.458 181.733L929.332 226.711L906.762 190.821L873.715 171.614L831.156 169.894L857.359 124.606C858.388 122.732 859.664 121.224 861.189 120.08C862.714 118.936 864.51 118.194 866.578 117.854L888.529 114.69C889.083 113.639 890.186 111.719 891.838 108.93C893.49 106.142 894.624 104.214 895.241 103.146C901.656 91.9428 911.072 81.2422 923.488 71.0442C935.905 60.8465 949.262 55.2789 963.562 54.3415ZM858.1 202.988C860.602 199.129 863.945 196.771 868.13 195.914C872.315 195.057 876.5 195.802 880.684 198.15C884.461 200.346 886.96 203.417 888.181 207.364C889.403 211.311 889.153 215.25 887.432 219.18C883.078 228.147 877.051 234.415 869.352 237.985C861.653 241.555 856.266 243.94 853.192 245.138C852.815 242.084 852.256 236.399 851.515 228.082C850.773 219.766 852.968 211.401 858.1 202.988ZM863.492 208.932C861.178 212.968 860.072 216.958 860.173 220.905C860.275 224.851 860.357 228.998 860.419 233.346C864.259 231.388 867.845 229.374 871.177 227.305C874.509 225.236 877.263 222.212 879.439 218.234C880.796 215.765 881.236 213.162 880.76 210.426C880.285 207.689 878.904 205.661 876.619 204.342C874.272 203.039 871.862 202.876 869.39 203.853C866.918 204.829 864.952 206.522 863.492 208.932Z" fill="white"/>
</svg>
